<?xml version="1.0" encoding="utf-8"?>
<!-- Generator: Adobe Illustrator 16.0.4, SVG Export Plug-In . SVG Version: 6.00 Build 0)  -->
<!DOCTYPE svg PUBLIC "-//W3C//DTD SVG 1.1//EN" "http://www.w3.org/Graphics/SVG/1.1/DTD/svg11.dtd">
<svg version="1.1" id="Layer_1" xmlns="http://www.w3.org/2000/svg" xmlns:xlink="http://www.w3.org/1999/xlink" x="0px" y="0px"
	 width="369.365px" height="80.774px" viewBox="0 0 369.365 80.774" enable-background="new 0 0 369.365 80.774"
	 xml:space="preserve">
<rect x="346.95" fill="#F47B20" width="22.415" height="22.418"/>
<path fill="#919195" d="M0,59.87c-0.026-12.123,7.243-20.887,19.981-20.915c12.737-0.029,20.046,8.702,20.074,20.825
	c0.029,12.201-7.242,20.966-19.981,20.994C7.335,80.803,0.026,72.071,0,59.87z M31.308,59.802
	c-0.015-6.829-3.485-13.957-11.31-13.939c-7.829,0.017-11.264,7.16-11.25,13.989c0.016,6.905,3.483,14.034,11.31,14.019
	C27.886,73.853,31.323,66.707,31.308,59.802z"/>
<path fill="#919195" d="M41.518,39.978l8.287-0.018l0.013,5.832l0.154,0.149c2.6-4.378,7.121-7.074,12.338-7.085
	c8.595-0.02,14.052,4.573,14.073,13.474l0.061,27.241l-8.748,0.019L67.64,54.653c-0.168-6.217-2.63-8.896-7.771-8.885
	c-5.832,0.014-9.582,4.625-9.568,10.457l0.051,23.403l-8.746,0.02L41.518,39.978z"/>
<path fill="#919195" d="M86.902,61.972c0.013,6.215,3.401,11.732,10.692,11.717c5.062-0.011,8.129-2.244,9.653-6.62l8.289-0.02
	c-1.9,8.675-9.258,13.525-17.927,13.545c-12.431,0.027-19.433-8.626-19.461-20.828c-0.023-11.279,7.319-20.965,19.138-20.991
	c12.507-0.027,20.205,11.236,18.774,23.133L86.902,61.972z M107.301,56.173c-0.32-5.525-4.091-10.504-9.999-10.491
	c-6.062,0.013-10.197,4.627-10.414,10.534L107.301,56.173z"/>
<path fill="#919195" d="M117.634,39.878l4.45-0.01l0.016,6.676h0.231c2.522-4.762,6.659-7.842,12.948-7.857
	c5.218-0.012,9.906,2.512,11.375,7.726c2.368-5.224,7.35-7.766,12.568-7.779c8.671-0.02,13.13,4.499,13.153,13.859l0.059,26.858
	l-4.833,0.011l-0.059-26.625c-0.015-6.523-2.478-10.049-9.383-10.033c-8.364,0.016-10.729,6.93-10.713,14.295l0.051,22.408
	l-4.834,0.011l-0.059-26.858c0.065-5.369-2.17-9.818-8.31-9.803c-8.364,0.018-11.726,6.318-11.784,14.605l0.049,22.1l-4.834,0.011
	L117.634,39.878z"/>
<path fill="#919195" d="M179.134,60.839c0.095,7.061,3.796,15.568,13.081,15.548c7.06-0.015,10.887-4.167,12.408-10.154l4.835-0.012
	c-2.052,8.982-7.258,14.212-17.235,14.234c-12.583,0.028-17.9-9.628-17.925-20.909c-0.022-10.435,5.249-20.96,17.834-20.988
	c12.737-0.028,17.824,11.088,17.466,22.215L179.134,60.839z M204.757,56.716c-0.247-7.289-4.788-14.109-12.618-14.092
	c-7.902,0.017-12.26,6.934-13.012,14.149L204.757,56.716z"/>
<path fill="#919195" d="M216.523,39.646l8.058-0.017l0.009,4.067l-8.057,0.016l0.059,26.704c0.008,3.147,0.472,4.988,3.927,5.211
	c1.378-0.004,2.762-0.082,4.143-0.239l0.007,4.145c-1.455,0.004-2.838,0.157-4.295,0.161c-6.445,0.015-8.676-2.128-8.614-8.882
	l-0.097-43.19l4.836-0.011L216.523,39.646z"/>
<path fill="#919195" d="M226.77,27.65l4.834-0.009l0.048,18.8l0.155-0.003c1.754-4.761,7.041-7.995,12.642-8.006
	c11.127-0.024,14.518,5.799,14.536,15.239l0.058,25.476l-4.835,0.01l-0.053-24.709c-0.015-6.829-2.252-11.966-10.079-11.948
	c-7.674,0.017-12.264,5.857-12.399,13.61l0.048,23.098l-4.833,0.009L226.77,27.65z"/>
<path fill="#919195" d="M298.438,59.257c0.025,11.357-6.552,20.964-18.676,20.991c-12.123,0.026-18.743-9.55-18.771-20.908
	c-0.024-11.354,6.552-20.963,18.676-20.99C291.793,38.324,298.415,47.901,298.438,59.257z M265.827,59.329
	c0.017,8.44,4.642,16.871,13.926,16.85c9.285-0.02,13.868-8.469,13.85-16.91c-0.017-8.441-4.64-16.872-13.925-16.852
	C270.394,42.438,265.808,50.888,265.827,59.329z"/>
<path fill="#F47B20" d="M336.85,78.97l-4.452,0.01l-0.015-7.52h-0.154c-2.062,5.146-8.346,8.689-14.101,8.703
	c-12.049,0.026-17.823-9.707-17.848-20.91c-0.026-11.201,5.707-20.961,17.756-20.988c5.908-0.013,11.669,2.967,13.754,8.641h0.153
	l-0.051-19.253l4.835-0.011L336.85,78.97z M318.119,76.095c10.283-0.023,13.87-8.702,13.852-16.912
	c-0.019-8.209-3.645-16.874-13.927-16.851c-9.207,0.021-12.949,8.7-12.929,16.909C305.135,67.452,308.911,76.115,318.119,76.095z"/>
</svg>
